<svg class="S7CavmS-v3qdubhT9asIc" viewBox="0 0 20 20" xmlns="http://www.w3.org/2000/svg"><g><path d="M13.0303,11.4697 C13.3233,11.7627 13.3233,12.2377 13.0303,12.5307 C12.8843,12.6767 12.6923,12.7497 12.5003,12.7497 C12.3083,12.7497 12.1163,12.6767 11.9693,12.5307 L10.0003,10.5607 L8.0303,12.5307 C7.8843,12.6767 7.6923,12.7497 7.5003,12.7497 C7.3083,12.7497 7.1163,12.6767 6.9693,12.5307 C6.6763,12.2377 6.6763,11.7627 6.9693,11.4697 L8.9393,9.4997 L6.9693,7.5307 C6.6763,7.2377 6.6763,6.7627 6.9693,6.4697 C7.2623,6.1767 7.7373,6.1767 8.0303,6.4697 L10.0003,8.4397 L11.9693,6.4697 C12.2623,6.1767 12.7373,6.1767 13.0303,6.4697 C13.3233,6.7627 13.3233,7.2377 13.0303,7.5307 L11.0603,9.4997 L13.0303,11.4697 Z M17.2753,3.0377 L10.2753,1.0377 C10.0953,0.9877 9.9053,0.9877 9.7253,1.0377 L2.7253,3.0377 C2.2963,3.1607 2.0003,3.5537 2.0003,3.9997 L2.0003,10.9997 C2.0003,16.6887 9.4093,18.8707 9.7253,18.9617 C9.8153,18.9877 9.9073,18.9997 10.0003,18.9997 C10.0923,18.9997 10.1853,18.9877 10.2753,18.9617 C10.5903,18.8707 18.0003,16.6887 18.0003,10.9997 L18.0003,3.9997 C18.0003,3.5537 17.7043,3.1607 17.2753,3.0377 L17.2753,3.0377 Z" id="path-1"></path></g></svg>
